# xmcd
#
# Track frame offsets:
#	150
#	16357
#	31215
#	53425
#	73710
#	86887
#	112845
#	129672
#	151532
#	179402
#
# Disc length: 2681 seconds
# Revision: 3
# Processed by: cddbd v1.5.2PL0 Copyright (c) Steve Scherf et al.
# Submitted via: dBpowerAMP V12.0
#
DISCID=740a770a
DTITLE=Paul deLay Band - Ocean of Tears
DYEAR=1996
DGENRE=Blues
TTITLE0=Bottom Line
TTITLE1=Don't Shame me
TTITLE2=Ocean of Tears
TTITLE3=Maybe Our Luck Will Change
TTITLE4=Hopefully
TTITLE5=If She is
TTITLE6=Slip, Stumble, Fall
TTITLE7=What Went Wrong
TTITLE8=Stop Your Groanin'
TTITLE9=I Win
EXTD=
EXTT0=
EXTT1=
EXTT2=
EXTT3=
EXTT4=
EXTT5=
EXTT6=
EXTT7=
EXTT8=
EXTT9=
PLAYORDER=
